<svg viewBox="0 0 517 384" fill="none" xmlns="http://www.w3.org/2000/svg">
<path d="M258.5 273.814C201.366 273.814 147.625 265.313 107.177 249.878C66.1908 234.236 43.6185 213.226 43.6185 190.715C43.6185 168.204 66.1908 147.194 107.177 131.553C147.625 116.118 201.366 107.617 258.5 107.617C315.635 107.617 369.375 116.118 409.823 131.553C450.809 147.194 473.382 168.205 473.382 190.715C473.382 213.225 450.809 234.236 409.823 249.878C369.375 265.313 315.635 273.814 258.5 273.814V273.814ZM258.5 111.162C201.788 111.162 148.496 119.58 108.443 134.865C68.9271 149.945 47.1654 169.779 47.1654 190.715C47.1654 211.65 68.9271 231.486 108.443 246.565C148.496 261.851 201.788 270.269 258.5 270.269C315.213 270.269 368.504 261.851 408.557 246.565C448.073 231.486 469.835 211.651 469.835 190.715C469.835 169.778 448.073 149.945 408.557 134.865C368.504 119.58 315.213 111.162 258.5 111.162V111.162Z" fill="#61DAFB"/>
<path d="M347.282 381.431C329.526 381.431 307.392 371.174 282.899 351.278C249.3 323.985 215.064 281.718 186.497 232.265C157.93 182.811 138.425 132.044 131.576 89.3154C124.635 46.0176 131.555 15.9744 151.059 4.71949C170.564 -6.535 200.056 2.49733 234.101 30.153C267.7 57.446 301.936 99.7122 330.503 149.166C359.07 198.619 378.575 249.387 385.424 292.116C392.365 335.413 385.445 365.456 365.941 376.712C360.468 379.869 354.207 381.431 347.282 381.431V381.431ZM169.813 3.51776C163.483 3.51776 157.787 4.93025 152.833 7.78942C134.692 18.2576 128.387 47.0112 135.078 88.7545C141.861 131.067 161.213 181.403 189.569 230.492C217.925 279.581 251.864 321.499 285.135 348.526C317.96 375.19 346.028 384.111 364.167 373.641C382.308 363.173 388.613 334.419 381.922 292.677C375.139 250.364 355.787 200.028 327.431 150.938C299.075 101.85 265.136 59.9313 231.864 32.9044C208.006 13.5233 186.66 3.51776 169.813 3.51776Z" fill="#61DAFB"/>
<path d="M169.718 381.431C162.791 381.431 156.533 379.87 151.059 376.712C131.555 365.456 124.635 335.413 131.576 292.116C138.425 249.387 157.93 198.619 186.497 149.166C215.064 99.7121 249.3 57.446 282.899 30.153C316.944 2.4969 346.437 -6.5363 365.941 4.71949C385.445 15.9744 392.365 46.0176 385.424 89.3154C378.575 132.044 359.07 182.811 330.503 232.265C301.936 281.718 267.7 323.985 234.101 351.278C209.61 371.173 187.473 381.431 169.718 381.431V381.431ZM347.187 3.51775C330.339 3.51775 308.996 13.522 285.135 32.9044C251.864 59.9313 217.925 101.85 189.569 150.938C161.213 200.028 141.861 250.364 135.078 292.677C128.387 334.419 134.692 363.173 152.833 373.641C157.786 376.5 163.484 377.912 169.813 377.913C186.661 377.915 208.004 367.909 231.864 348.526C265.136 321.499 299.075 279.581 327.431 230.492C355.787 181.403 375.139 131.067 381.922 88.7545C388.613 47.0111 382.308 18.2576 364.167 7.78941C359.214 4.9311 353.516 3.51775 347.187 3.51775V3.51775Z" fill="#61DAFB"/>
<path d="M258.5 230.41C280.434 230.41 298.216 212.638 298.216 190.715C298.216 168.792 280.434 151.02 258.5 151.02C236.566 151.02 218.784 168.792 218.784 190.715C218.784 212.638 236.566 230.41 258.5 230.41Z" fill="#61DAFB"/>
<path d="M500.812 300.256C500.063 298.994 496.824 300.345 496.229 299.2C495.636 298.059 498.645 296.32 500.364 292.349C500.674 291.633 502.628 287.12 501.181 285.727C498.44 283.088 485.895 293.981 481.504 290.416C480.541 289.634 479.868 288.072 476.951 285.536C475.791 284.528 475.09 284.072 474.411 284.242C473.448 284.482 473.371 285.771 472.338 288.304C470.789 292.104 469.873 291.874 468.97 294.906C468.3 297.156 468.453 298.465 467.665 298.72C466.549 299.08 465.522 296.693 464.108 296.907C462.665 297.125 461.793 299.905 461.518 301.985C461.001 305.89 462.435 308.467 463.231 311.177C464.095 314.121 464.608 318.599 462.612 324.938L442.858 380.566C447.219 369.151 459.846 337.861 465.152 326.233C466.684 322.876 468.375 319.472 471.848 318.128C475.191 316.834 479.783 317.606 485.637 316.197C486.321 316.032 488.218 315.55 488.457 314.435C488.654 313.513 487.538 312.998 487.71 312.134C487.94 310.976 490.134 310.962 492.831 309.625C494.732 308.683 495.917 307.562 496.936 306.598C497.243 306.308 501.808 301.935 500.812 300.256V300.256Z" fill="#236014"/>
<path d="M423.094 329.54C422.259 329.544 421.987 331.522 421.253 331.484C420.522 331.446 420.536 329.468 419.082 327.479C418.82 327.12 417.168 324.859 416.066 325.167C413.979 325.75 415.709 335.047 412.691 336.173C412.029 336.42 411.068 336.299 408.982 336.998C408.151 337.276 407.725 337.489 407.613 337.871C407.453 338.413 408.064 338.822 409.01 340.06C410.429 341.916 410.052 342.299 411.28 343.617C412.192 344.595 412.878 344.897 412.776 345.357C412.631 346.009 411.163 345.824 410.86 346.579C410.551 347.35 411.664 348.58 412.606 349.315C414.374 350.696 416.054 350.735 417.614 351.127C419.309 351.553 421.656 352.593 424.193 355.401L445.81 381.142C441.463 375.709 429.741 360.486 425.562 354.528C424.355 352.809 423.171 350.996 423.514 348.905C423.843 346.892 425.547 344.862 426.544 341.584C426.66 341.201 426.971 340.131 426.492 339.692C426.096 339.329 425.521 339.728 425.147 339.395C424.644 338.948 425.271 337.867 425.392 336.159C425.478 334.954 425.27 334.05 425.09 333.272C425.036 333.037 424.206 329.536 423.094 329.54H423.094Z" fill="#236014"/>
<path d="M439.764 333.281L439.261 328.789L439.491 328.448C440.555 326.874 441.098 325.336 441.104 323.876C441.105 323.644 441.095 323.412 441.084 323.176C441.04 322.239 440.986 321.074 441.594 319.716C441.934 318.959 442.891 317.207 444.33 317.424C444.717 317.478 445.01 317.656 445.233 317.864C445.265 317.812 445.299 317.76 445.335 317.704C445.783 317.02 446.138 316.728 446.479 316.446C446.742 316.229 447.013 316.005 447.439 315.476C447.625 315.244 447.771 315.04 447.893 314.869C448.265 314.35 448.751 313.732 449.609 313.743C450.524 313.787 451.004 314.544 451.322 315.045C451.889 315.938 452.146 316.582 452.317 317.01C452.379 317.166 452.449 317.341 452.485 317.396C452.78 317.829 455.179 317.424 456.083 317.276C458.113 316.938 459.87 316.645 460.593 317.925C461.112 318.84 460.727 320.05 459.414 321.618C459.005 322.106 458.57 322.477 458.183 322.768C458.503 322.959 458.79 323.252 458.906 323.711C459.179 324.8 458.243 325.891 456.124 326.958C455.598 327.225 454.889 327.581 453.897 327.752C453.429 327.832 453.008 327.852 452.648 327.863C452.64 328.071 452.591 328.296 452.464 328.528C452.092 329.212 451.317 329.537 450.15 329.459C448.865 329.392 447.807 329.147 446.874 328.932C446.06 328.745 445.358 328.587 444.806 328.624C443.784 328.706 442.997 329.524 442.072 330.585L439.764 333.281V333.281Z" fill="#236014"/>
<path d="M442.1 306.536L437.88 308.163L437.492 308.027C435.698 307.397 434.073 307.262 432.658 307.626C432.433 307.684 432.212 307.754 431.986 307.824C431.09 308.104 429.976 308.452 428.508 308.208C427.689 308.071 425.751 307.59 425.595 306.144C425.55 305.756 425.648 305.428 425.793 305.16C425.734 305.142 425.675 305.122 425.611 305.102C424.837 304.842 424.463 304.573 424.104 304.315C423.827 304.116 423.542 303.91 422.922 303.633C422.65 303.512 422.416 303.423 422.219 303.348C421.623 303.119 420.901 302.806 420.694 301.975C420.504 301.078 421.115 300.423 421.519 299.988C422.24 299.213 422.798 298.801 423.169 298.528C423.304 298.429 423.456 298.316 423.5 298.268C423.845 297.872 422.844 295.656 422.472 294.819C421.629 292.943 420.9 291.319 421.955 290.294C422.709 289.561 423.978 289.626 425.829 290.498C426.405 290.769 426.874 291.096 427.254 291.396C427.357 291.038 427.568 290.687 427.983 290.458C428.968 289.917 430.261 290.546 431.831 292.324C432.223 292.765 432.747 293.36 433.165 294.276C433.361 294.708 433.487 295.11 433.588 295.455C433.792 295.41 434.023 295.4 434.279 295.464C435.035 295.65 435.546 296.317 435.767 297.465C436.028 298.724 436.059 299.809 436.088 300.766C436.114 301.601 436.139 302.32 436.314 302.843C436.653 303.81 437.644 304.364 438.905 304.989L442.1 306.536V306.536Z" fill="#236014"/>
<path d="M439.764 293.304L439.261 288.812L439.491 288.471C440.555 286.897 441.098 285.359 441.104 283.899C441.105 283.667 441.095 283.435 441.084 283.199C441.04 282.262 440.986 281.097 441.594 279.739C441.934 278.982 442.891 277.23 444.33 277.447C444.717 277.501 445.01 277.679 445.233 277.887C445.265 277.835 445.299 277.783 445.335 277.727C445.783 277.043 446.138 276.751 446.479 276.469C446.742 276.252 447.013 276.028 447.439 275.499C447.625 275.267 447.771 275.063 447.893 274.892C448.265 274.374 448.751 273.755 449.609 273.766C450.524 273.81 451.004 274.567 451.322 275.068C451.889 275.961 452.146 276.605 452.317 277.033C452.379 277.189 452.449 277.364 452.485 277.419C452.78 277.852 455.179 277.447 456.083 277.299C458.113 276.961 459.87 276.668 460.593 277.948C461.112 278.863 460.727 280.073 459.414 281.642C459.005 282.13 458.57 282.5 458.183 282.791C458.503 282.982 458.79 283.275 458.906 283.734C459.179 284.823 458.243 285.914 456.124 286.981C455.598 287.248 454.889 287.604 453.897 287.775C453.429 287.855 453.008 287.875 452.648 287.886C452.64 288.094 452.591 288.32 452.464 288.552C452.092 289.235 451.317 289.56 450.15 289.482C448.865 289.415 447.807 289.17 446.874 288.955C446.06 288.768 445.358 288.61 444.806 288.647C443.784 288.729 442.997 289.547 442.072 290.608L439.764 293.304V293.304Z" fill="#236014"/>
<path d="M444.363 380.493L443.421 379.903L443.193 378.816L443.421 379.903L442.323 380.029C442.305 379.927 442.246 379.692 442.156 379.326C441.664 377.318 440.166 371.206 438.916 361.58C438.044 354.861 437.55 347.953 437.448 341.045C437.346 334.126 437.674 328.888 437.936 324.679C438.135 321.503 438.376 318.48 438.612 315.535C439.241 307.666 439.835 300.233 439.393 292.004C439.296 290.167 439.091 286.344 436.855 282.275C435.559 279.915 433.773 277.82 431.546 276.05L432.931 274.311C435.388 276.267 437.364 278.588 438.804 281.208C441.282 285.719 441.506 289.885 441.613 291.887C442.062 300.261 441.462 307.766 440.827 315.71C440.592 318.645 440.351 321.655 440.154 324.817C439.893 328.988 439.569 334.181 439.67 341.01C439.77 347.836 440.258 354.659 441.118 361.294C442.353 370.798 443.83 376.819 444.315 378.797C444.573 379.853 444.627 380.074 444.363 380.493V380.493Z" fill="#236014"/>
<path d="M427.471 279.579C427.38 279.579 427.288 279.577 427.195 279.57C425.302 279.468 423.55 278.336 421.985 276.206C421.252 275.204 420.877 274.061 420.128 271.782C420.012 271.43 419.448 269.648 419.105 267.195C418.88 265.592 418.908 264.922 419.226 264.329C419.579 263.67 420.15 263.21 420.792 262.9C420.764 262.688 420.786 262.469 420.879 262.245C421.257 261.319 422.264 261.441 422.809 261.499C423.085 261.534 423.428 261.579 423.799 261.56C424.383 261.532 424.697 261.358 425.172 261.098C425.627 260.848 426.192 260.538 427.031 260.367C428.684 260.022 430.07 260.491 430.527 260.645C432.93 261.445 434.115 263.312 435.486 265.475C435.76 265.908 436.698 267.487 437.318 269.652C437.765 271.214 437.702 271.908 437.567 272.424C437.294 273.484 436.648 274.092 435.009 275.432C433.297 276.835 432.437 277.538 431.699 277.965C429.982 278.956 428.903 279.579 427.471 279.579V279.579Z" fill="#236014"/>
<path d="M215.892 202.725C219.586 203.699 223.083 202.583 223.703 200.234C224.323 197.884 221.831 195.19 218.136 194.216C216.665 193.807 215.117 193.756 213.623 194.067L197.919 190.137L196.231 197.542L211.891 200.63C213.038 201.637 214.41 202.356 215.892 202.725V202.725Z" fill="#FFB6B6"/>
<path d="M129.581 166.673C129.581 166.673 126.391 172.791 130.812 175.809C135.233 178.827 172.047 192.813 172.047 192.813L208.607 200.765L209.927 191.885L176.641 181.256L148.883 162.598L129.581 166.673H129.581Z" fill="#2F2E41"/>
<path d="M173.116 364.141L179.316 361.353L169.554 332.188L160.403 336.301L173.116 364.141Z" fill="#FFB6B6"/>
<path d="M200.272 366.866C200.768 367.901 200.435 369.092 199.528 369.526L187.358 375.346C187.358 375.346 183.857 371.107 177.982 371.372L180.94 378.415L174.662 381.418L170.125 369.987C170.125 369.987 165.611 364.87 167.65 360.175C169.689 355.481 167.065 357.253 167.065 357.253L165.158 349.747L175.179 346.325L180.396 357.044L190.109 365.515L198.458 365.619C199.201 365.628 199.914 366.118 200.272 366.866L200.272 366.866V366.866Z" fill="#2F2E41"/>
<path d="M50.4201 349.083L55.961 353.021L76.204 329.859L68.0273 324.046L50.4201 349.083Z" fill="#FFB6B6"/>
<path d="M61.7957 373.88C61.1525 374.83 59.9561 375.145 59.1234 374.582L47.9468 367.029C47.9468 367.029 49.8362 361.867 46.6383 356.935L42.053 363.046L36.2874 359.15L43.8613 349.459C43.8613 349.459 45.9973 342.979 51.0806 342.365C56.164 341.75 53.3078 340.383 53.3078 340.383L58.8232 334.945L66.8429 341.856L60.2272 351.774L57.8249 364.432L61.9552 371.685C62.3228 372.331 62.2601 373.193 61.7956 373.88L61.7957 373.88V373.88Z" fill="#2F2E41"/>
<path d="M148.517 127.021H119.402V166.985H148.517V127.021Z" fill="#2F2E41"/>
<path d="M141.979 149.864L126.17 145.166L123.179 153.28L122.752 202.815C122.752 202.815 145.397 197.691 150.524 206.232L152.233 190.859C152.233 190.859 157.787 183.172 153.087 173.35C148.387 163.529 143.957 159.1 143.957 159.1L140.27 157.123L141.979 149.864V149.864Z" fill="#6C63FF"/>
<path d="M123.82 195.342L121.684 217.121L149.883 223.099C149.883 223.099 147.747 204.31 150.31 200.04L123.82 195.342V195.342Z" fill="#FFB6B6"/>
<path d="M151.592 222.672C151.592 222.672 133.647 209.434 118.266 214.559C118.266 214.559 100.108 225.875 109.507 245.519L95.1943 279.468L63.1502 324.306L72.1225 334.982L114.421 290.997L128.093 272.208L162.7 345.658L173.382 340.533L160.137 284.165L152.233 245.092L151.592 222.672H151.592Z" fill="#2F2E41"/>
<path d="M109.721 247.867L88.3582 241.035L108.866 184.24L106.73 153.92L124.824 148.819L134.929 193.634L109.721 247.867Z" fill="#2F2E41"/>
<path d="M142.776 160.28L139.546 157.052L140.987 154.077C140.987 154.077 150.31 163.742 152.019 166.304C153.728 168.866 169.687 233.219 169.687 233.219L145.61 243.17L150.31 192.641L152.05 181.275C152.308 179.595 152.02 177.876 151.229 176.371L142.776 160.28V160.28Z" fill="#2F2E41"/>
<path d="M134.918 145.824C142.742 145.824 149.085 139.485 149.085 131.664C149.085 123.844 142.742 117.504 134.918 117.504C127.093 117.504 120.75 123.844 120.75 131.664C120.75 139.485 127.093 145.824 134.918 145.824Z" fill="#FFB6B6"/>
<path d="M143.729 125.876C138.868 122.636 130.168 135.612 127.508 127.636C127.093 126.392 126.118 131.894 125.761 133.82C125.307 136.264 126.454 138.217 125.761 138.655C124.976 139.149 123.056 136.942 122.651 137.273C122.254 137.597 123.529 140.162 125.761 143.145C128.723 147.104 130.58 148.067 133.017 150.743C135.286 153.233 139.485 157.842 138.891 161.794C137.776 169.229 119.613 174.974 114.012 169.393C112.671 168.056 112.408 165.03 111.939 159.032C111.239 150.105 111.767 143.406 111.939 141.418C112.652 133.137 113.008 128.996 114.703 125.531C115.785 123.317 119.429 115.864 127.488 113.443C136.145 110.841 146.449 115.082 149.258 121.386C150.07 123.208 149.281 123.013 150.295 128.984C151.494 136.051 152.271 140.291 155.478 142.799C158.424 145.103 160.697 143.815 161.698 145.562C164.293 150.093 152.248 164.43 147.185 162.485C144.134 161.314 143.864 154.326 144.075 151.088C144.529 144.115 147.985 142.635 147.876 136.237C147.847 134.544 147.744 128.552 143.729 125.876V125.876Z" fill="#2F2E41"/>
<path d="M82.0064 244.205C81.4049 247.975 82.8639 251.342 85.265 251.724C87.666 252.106 90.0993 249.36 90.7006 245.588C90.9614 244.084 90.8582 242.54 90.3996 241.084L92.7464 225.075L85.2065 224.135L83.6935 240.017C82.8046 241.258 82.2261 242.694 82.0064 244.205H82.0064Z" fill="#FFB6B6"/>
<path d="M109.294 154.774C109.294 154.774 102.885 152.212 100.321 156.91C97.7578 161.607 87.5037 199.613 87.5037 199.613L83.2311 236.764L92.2035 237.192L99.4668 203.029L115.275 173.564L109.294 154.774V154.774Z" fill="#2F2E41"/>
<path d="M517 382.5C517 383.328 516.667 384 516.255 384H1.5C0.671577 384 0 383.328 0 382.5V382.5C0 381.672 0.671573 381 1.5 381H516.255C516.667 381 517 381.672 517 382.5V382.5Z" fill="white"/>
</svg>
